<?xml version="1.0" encoding="UTF-8" standalone="no"?>
<!DOCTYPE svg PUBLIC "-//W3C//DTD SVG 1.1//EN" "http://www.w3.org/Graphics/SVG/1.1/DTD/svg11.dtd">
<svg width="100%" height="100%" viewBox="0 0 134 73" version="1.1" xmlns="http://www.w3.org/2000/svg" xmlns:xlink="http://www.w3.org/1999/xlink" xml:space="preserve" xmlns:serif="http://www.serif.com/" style="fill-rule:evenodd;clip-rule:evenodd;stroke-linejoin:round;stroke-miterlimit:2;">
    <g transform="matrix(1,0,0,1,-183.431,-187.574)">
        <path d="M313.641,257.07C317.545,253.165 317.545,246.835 313.641,242.93C302.127,231.417 279.11,208.4 264.142,193.431C260.391,189.681 255.304,187.574 250,187.574C244.696,187.574 239.609,189.681 235.858,193.431C220.89,208.399 197.875,231.415 186.36,242.929C182.455,246.834 182.455,253.166 186.36,257.071C186.36,257.071 186.36,257.071 186.36,257.071C190.266,260.976 196.597,260.976 200.503,257.071C212.711,244.863 237.312,220.261 246.464,211.109C247.402,210.171 248.674,209.645 250,209.645C251.326,209.645 252.598,210.171 253.536,211.109C262.688,220.261 287.289,244.863 299.497,257.071C303.403,260.976 309.734,260.976 313.64,257.071C313.64,257.071 313.641,257.07 313.641,257.07Z"/>
    </g>
</svg>
